<?xml version="1.0"?>
<svg xmlns="http://www.w3.org/2000/svg" xmlns:xlink="http://www.w3.org/1999/xlink" version="1.1" id="Layer_1" x="0px" y="0px" viewBox="0 0 512 512" style="enable-background:new 0 0 512 512;" xml:space="preserve" width="512px" height="512px" class=""><g><g>
	<g>
		<path d="M256,0C114.837,0,0,114.843,0,256s114.837,256,256,256s256-114.843,256-256S397.163,0,256,0z M376.239,227.501    L257.348,346.391c-13.043,13.043-34.174,13.044-47.218,0l-68.804-68.804c-13.044-13.038-13.044-34.179,0-47.218    c13.044-13.044,34.174-13.044,47.218,0l45.195,45.19l95.282-95.278c13.044-13.044,34.174-13.044,47.218,0    C389.283,193.321,389.283,214.462,376.239,227.501z" data-original="#000000" class="active-path" data-old_color="#000000" fill="#009F80"/>
	</g>
</g></g> </svg>
