<?xml version="1.0"?>
<svg xmlns="http://www.w3.org/2000/svg" xmlns:xlink="http://www.w3.org/1999/xlink" version="1.1" id="Capa_1" x="0px" y="0px" width="512px" height="512px" viewBox="0 0 61.581 61.581" style="enable-background:new 0 0 61.581 61.581;" xml:space="preserve" class="hovered-paths"><g><g>
	<g>
		<path d="M58.456,8.377H3.125C1.399,8.377,0,9.802,0,11.558v3.504h61.581v-3.504C61.581,9.802,60.183,8.377,58.456,8.377z" data-original="#000000" class="hovered-path active-path" data-old_color="#000000" fill="#009F80"/>
		<path d="M0,43.739c0,1.756,1.399,3.18,3.125,3.18h33.952c-0.32-0.366-0.521-0.84-0.521-1.365v-6.335    c0-0.553,0.22-1.082,0.61-1.473s0.92-0.61,1.474-0.61h5.566v-5.566c0-1.152,0.932-2.084,2.083-2.084h6.336    c1.15,0,2.083,0.932,2.083,2.084v5.566h5.566c0.479,0,0.936,0.174,1.306,0.474V23.46H0V43.739z" data-original="#000000" class="hovered-path active-path" data-old_color="#000000" fill="#009F80"/>
		<polygon points="52.625,31.569 46.289,31.569 46.289,39.219 38.64,39.219 38.64,45.554 46.289,45.554 46.289,46.919     46.289,53.204 52.625,53.204 52.625,46.919 52.625,45.554 60.275,45.554 60.275,39.219 52.625,39.219   " data-original="#000000" class="hovered-path active-path" data-old_color="#000000" fill="#009F80"/>
	</g>
</g></g> </svg>
