<?xml version="1.0"?>
<svg xmlns="http://www.w3.org/2000/svg" height="512px" viewBox="-36 0 512 512" width="512px" class=""><g><path d="m415 0h-21.035156c3.847656 7.507812 6.035156 16 6.035156 25v462c0 9-2.1875 17.492188-6.035156 25h21.035156c13.785156 0 25-11.214844 25-25v-462c0-13.785156-11.214844-25-25-25zm0 0" data-original="#000000" class="active-path" data-old_color="#000000" fill="#009F80"/><path d="m172.453125 236.09375c5.230469 15.671875 10.820313 20.917969 12.546875 21.816406 1.726562-.898437 7.316406-6.144531 12.546875-21.816406 4.21875-12.636719 6.960937-28.277344 7.988281-45.09375h-41.074218c1.03125 16.816406 3.773437 32.457031 7.992187 45.09375zm0 0" data-original="#000000" class="active-path" data-old_color="#000000" fill="#009F80"/><path d="m225.402344 104.6875c5.535156 15.875 9.050781 35.386719 10.191406 56.3125h30.007812c-4.480468-24.128906-19.550781-44.566406-40.199218-56.3125zm0 0" data-original="#000000" class="active-path" data-old_color="#000000" fill="#009F80"/><path d="m104.398438 161h30.007812c1.140625-20.925781 4.65625-40.4375 10.191406-56.3125-20.648437 11.746094-35.71875 32.183594-40.199218 56.3125zm0 0" data-original="#000000" class="active-path" data-old_color="#000000" fill="#009F80"/><path d="m225.402344 247.3125c20.648437-11.746094 35.71875-32.183594 40.199218-56.3125h-30.007812c-1.140625 20.925781-4.65625 40.4375-10.191406 56.3125zm0 0" data-original="#000000" class="active-path" data-old_color="#000000" fill="#009F80"/><path d="m345 0h-320c-13.785156 0-25 11.214844-25 25v462c0 13.785156 11.214844 25 25 25h320c13.785156 0 25-11.214844 25-25v-462c0-13.785156-11.214844-25-25-25zm-111 430h-96c-8.285156 0-15-6.714844-15-15s6.714844-15 15-15h96c8.285156 0 15 6.714844 15 15s-6.714844 15-15 15zm24-60h-146c-8.285156 0-15-6.714844-15-15s6.714844-15 15-15h146c8.285156 0 15 6.714844 15 15s-6.714844 15-15 15zm-73-82c-61.757812 0-112-50.242188-112-112s50.242188-112 112-112 112 50.242188 112 112-50.242188 112-112 112zm0 0" data-original="#000000" class="active-path" data-old_color="#000000" fill="#009F80"/><path d="m104.398438 191c4.480468 24.128906 19.550781 44.566406 40.199218 56.3125-5.535156-15.875-9.050781-35.386719-10.191406-56.3125zm0 0" data-original="#000000" class="active-path" data-old_color="#000000" fill="#009F80"/><path d="m185 94.089844c-1.726562.898437-7.316406 6.144531-12.546875 21.816406-4.21875 12.636719-6.960937 28.277344-7.988281 45.09375h41.074218c-1.03125-16.816406-3.773437-32.457031-7.992187-45.09375-5.230469-15.671875-10.820313-20.917969-12.546875-21.816406zm0 0" data-original="#000000" class="active-path" data-old_color="#000000" fill="#009F80"/></g> </svg>
